<mxfile host="app.diagrams.net" modified="2021-08-15T18:01:06.113Z" agent="5.0 (Windows NT 10.0; Win64; x64) AppleWebKit/537.36 (KHTML, like Gecko) Chrome/92.0.4515.131 Safari/537.36" etag="EPngC4knNPsMMAKXStn4" version="14.9.6" type="github">
  <diagram id="NBqRJTqcQL_MeElaurz1" name="Page-1">
    <mxGraphModel dx="1221" dy="681" grid="0" gridSize="10" guides="1" tooltips="1" connect="1" arrows="1" fold="1" page="1" pageScale="1" pageWidth="827" pageHeight="1169" background="#FFD966" math="0" shadow="0">
      <root>
        <mxCell id="0" />
        <mxCell id="1" parent="0" />
        <mxCell id="kdDCr_MIz2S15lqG9rGP-2" value="" style="html=1;verticalAlign=bottom;startArrow=circle;startFill=1;endArrow=open;startSize=6;endSize=8;" edge="1" parent="1">
          <mxGeometry x="35" y="10" width="80" as="geometry">
            <mxPoint x="90" y="30" as="sourcePoint" />
            <mxPoint x="90" y="70" as="targetPoint" />
          </mxGeometry>
        </mxCell>
        <mxCell id="kdDCr_MIz2S15lqG9rGP-3" value="Register" style="ellipse;whiteSpace=wrap;html=1;" vertex="1" parent="1">
          <mxGeometry x="50" y="70" width="80" height="40" as="geometry" />
        </mxCell>
        <mxCell id="kdDCr_MIz2S15lqG9rGP-4" value="" style="endArrow=classic;html=1;" edge="1" parent="1">
          <mxGeometry x="35" y="10" width="50" height="50" as="geometry">
            <mxPoint x="93" y="111" as="sourcePoint" />
            <mxPoint x="93" y="128" as="targetPoint" />
          </mxGeometry>
        </mxCell>
        <mxCell id="kdDCr_MIz2S15lqG9rGP-5" value="Enter Registration Info" style="ellipse;whiteSpace=wrap;html=1;" vertex="1" parent="1">
          <mxGeometry x="35" y="130" width="125" height="30" as="geometry" />
        </mxCell>
        <mxCell id="kdDCr_MIz2S15lqG9rGP-6" value="" style="shape=line;html=1;strokeWidth=6;rotation=-90;" vertex="1" parent="1">
          <mxGeometry x="102" y="117" width="164" height="10" as="geometry" />
        </mxCell>
        <mxCell id="kdDCr_MIz2S15lqG9rGP-7" value="" style="endArrow=classic;html=1;" edge="1" parent="1">
          <mxGeometry x="35" y="10" width="50" height="50" as="geometry">
            <mxPoint x="160" y="144.5" as="sourcePoint" />
            <mxPoint x="180" y="144.5" as="targetPoint" />
          </mxGeometry>
        </mxCell>
        <mxCell id="kdDCr_MIz2S15lqG9rGP-8" value="" style="endArrow=classic;html=1;" edge="1" parent="1">
          <mxGeometry x="35" y="10" width="50" height="50" as="geometry">
            <mxPoint x="184" y="43" as="sourcePoint" />
            <mxPoint x="204" y="43" as="targetPoint" />
          </mxGeometry>
        </mxCell>
        <mxCell id="kdDCr_MIz2S15lqG9rGP-9" value="" style="endArrow=classic;html=1;" edge="1" parent="1">
          <mxGeometry x="35" y="10" width="50" height="50" as="geometry">
            <mxPoint x="185" y="80" as="sourcePoint" />
            <mxPoint x="205" y="80" as="targetPoint" />
          </mxGeometry>
        </mxCell>
        <mxCell id="kdDCr_MIz2S15lqG9rGP-10" value="" style="endArrow=classic;html=1;" edge="1" parent="1">
          <mxGeometry x="35" y="10" width="50" height="50" as="geometry">
            <mxPoint x="185" y="120" as="sourcePoint" />
            <mxPoint x="205" y="120" as="targetPoint" />
          </mxGeometry>
        </mxCell>
        <mxCell id="kdDCr_MIz2S15lqG9rGP-11" value="" style="endArrow=classic;html=1;" edge="1" parent="1">
          <mxGeometry x="35" y="10" width="50" height="50" as="geometry">
            <mxPoint x="186" y="160" as="sourcePoint" />
            <mxPoint x="206" y="160" as="targetPoint" />
          </mxGeometry>
        </mxCell>
        <mxCell id="kdDCr_MIz2S15lqG9rGP-12" value="" style="endArrow=classic;html=1;" edge="1" parent="1">
          <mxGeometry x="35" y="10" width="50" height="50" as="geometry">
            <mxPoint x="187" y="200" as="sourcePoint" />
            <mxPoint x="207" y="200" as="targetPoint" />
          </mxGeometry>
        </mxCell>
        <mxCell id="kdDCr_MIz2S15lqG9rGP-13" value="Name" style="ellipse;whiteSpace=wrap;html=1;" vertex="1" parent="1">
          <mxGeometry x="204" y="31" width="56" height="23" as="geometry" />
        </mxCell>
        <mxCell id="kdDCr_MIz2S15lqG9rGP-14" value="Email" style="ellipse;whiteSpace=wrap;html=1;" vertex="1" parent="1">
          <mxGeometry x="204" y="70" width="56" height="23" as="geometry" />
        </mxCell>
        <mxCell id="kdDCr_MIz2S15lqG9rGP-15" value="Phone" style="ellipse;whiteSpace=wrap;html=1;" vertex="1" parent="1">
          <mxGeometry x="204" y="107" width="56" height="23" as="geometry" />
        </mxCell>
        <mxCell id="kdDCr_MIz2S15lqG9rGP-16" value="Address" style="ellipse;whiteSpace=wrap;html=1;" vertex="1" parent="1">
          <mxGeometry x="204" y="150" width="56" height="23" as="geometry" />
        </mxCell>
        <mxCell id="kdDCr_MIz2S15lqG9rGP-17" value="Password" style="ellipse;whiteSpace=wrap;html=1;" vertex="1" parent="1">
          <mxGeometry x="204" y="190" width="56" height="23" as="geometry" />
        </mxCell>
        <mxCell id="kdDCr_MIz2S15lqG9rGP-18" value="" style="endArrow=classic;html=1;" edge="1" parent="1">
          <mxGeometry x="35" y="10" width="50" height="50" as="geometry">
            <mxPoint x="260" y="42" as="sourcePoint" />
            <mxPoint x="280" y="42" as="targetPoint" />
          </mxGeometry>
        </mxCell>
        <mxCell id="kdDCr_MIz2S15lqG9rGP-19" value="" style="endArrow=classic;html=1;" edge="1" parent="1">
          <mxGeometry x="35" y="10" width="50" height="50" as="geometry">
            <mxPoint x="260" y="81" as="sourcePoint" />
            <mxPoint x="280" y="81" as="targetPoint" />
          </mxGeometry>
        </mxCell>
        <mxCell id="kdDCr_MIz2S15lqG9rGP-20" value="" style="endArrow=classic;html=1;" edge="1" parent="1">
          <mxGeometry x="35" y="10" width="50" height="50" as="geometry">
            <mxPoint x="260" y="121.5" as="sourcePoint" />
            <mxPoint x="280" y="121.5" as="targetPoint" />
          </mxGeometry>
        </mxCell>
        <mxCell id="kdDCr_MIz2S15lqG9rGP-21" value="" style="endArrow=classic;html=1;" edge="1" parent="1">
          <mxGeometry x="35" y="10" width="50" height="50" as="geometry">
            <mxPoint x="260" y="161" as="sourcePoint" />
            <mxPoint x="280" y="161" as="targetPoint" />
          </mxGeometry>
        </mxCell>
        <mxCell id="kdDCr_MIz2S15lqG9rGP-22" value="" style="endArrow=classic;html=1;" edge="1" parent="1">
          <mxGeometry x="35" y="10" width="50" height="50" as="geometry">
            <mxPoint x="260" y="201" as="sourcePoint" />
            <mxPoint x="280" y="201" as="targetPoint" />
          </mxGeometry>
        </mxCell>
        <mxCell id="kdDCr_MIz2S15lqG9rGP-23" value="" style="shape=line;html=1;strokeWidth=6;rotation=-90;" vertex="1" parent="1">
          <mxGeometry x="204" y="117" width="164" height="10" as="geometry" />
        </mxCell>
        <mxCell id="kdDCr_MIz2S15lqG9rGP-24" value="" style="endArrow=classic;html=1;" edge="1" parent="1">
          <mxGeometry x="35" y="10" width="50" height="50" as="geometry">
            <mxPoint x="286" y="120" as="sourcePoint" />
            <mxPoint x="306" y="120" as="targetPoint" />
          </mxGeometry>
        </mxCell>
        <mxCell id="kdDCr_MIz2S15lqG9rGP-25" value="Enter Submit" style="ellipse;whiteSpace=wrap;html=1;" vertex="1" parent="1">
          <mxGeometry x="306" y="103.5" width="54" height="31.5" as="geometry" />
        </mxCell>
        <mxCell id="kdDCr_MIz2S15lqG9rGP-26" value="" style="endArrow=classic;html=1;" edge="1" parent="1">
          <mxGeometry x="35" y="10" width="50" height="50" as="geometry">
            <mxPoint x="332.5" y="135" as="sourcePoint" />
            <mxPoint x="332.5" y="215" as="targetPoint" />
          </mxGeometry>
        </mxCell>
        <mxCell id="kdDCr_MIz2S15lqG9rGP-27" value="Get Massage Registration Done" style="ellipse;whiteSpace=wrap;html=1;" vertex="1" parent="1">
          <mxGeometry x="281.5" y="213" width="103" height="40" as="geometry" />
        </mxCell>
        <mxCell id="kdDCr_MIz2S15lqG9rGP-28" value="" style="endArrow=classic;html=1;" edge="1" parent="1">
          <mxGeometry x="35" y="10" width="50" height="50" as="geometry">
            <mxPoint x="280" y="237" as="sourcePoint" />
            <mxPoint x="260" y="237" as="targetPoint" />
          </mxGeometry>
        </mxCell>
        <mxCell id="kdDCr_MIz2S15lqG9rGP-29" value="Click at Login" style="ellipse;whiteSpace=wrap;html=1;" vertex="1" parent="1">
          <mxGeometry x="207" y="221.25" width="54" height="31.5" as="geometry" />
        </mxCell>
        <mxCell id="kdDCr_MIz2S15lqG9rGP-30" value="" style="endArrow=classic;html=1;" edge="1" parent="1">
          <mxGeometry x="35" y="10" width="50" height="50" as="geometry">
            <mxPoint x="207" y="236.5" as="sourcePoint" />
            <mxPoint x="187" y="236.5" as="targetPoint" />
          </mxGeometry>
        </mxCell>
        <mxCell id="kdDCr_MIz2S15lqG9rGP-31" value="" style="shape=line;html=1;strokeWidth=6;rotation=-90;" vertex="1" parent="1">
          <mxGeometry x="154.25" y="236.25" width="61.5" height="10" as="geometry" />
        </mxCell>
        <mxCell id="kdDCr_MIz2S15lqG9rGP-32" value="" style="endArrow=classic;html=1;" edge="1" parent="1">
          <mxGeometry x="35" y="10" width="50" height="50" as="geometry">
            <mxPoint x="183.25" y="213" as="sourcePoint" />
            <mxPoint x="163.25" y="213" as="targetPoint" />
          </mxGeometry>
        </mxCell>
        <mxCell id="kdDCr_MIz2S15lqG9rGP-33" value="" style="endArrow=classic;html=1;" edge="1" parent="1">
          <mxGeometry x="35" y="10" width="50" height="50" as="geometry">
            <mxPoint x="184" y="267" as="sourcePoint" />
            <mxPoint x="164" y="267" as="targetPoint" />
          </mxGeometry>
        </mxCell>
        <mxCell id="kdDCr_MIz2S15lqG9rGP-34" value="Enter Email" style="ellipse;whiteSpace=wrap;html=1;" vertex="1" parent="1">
          <mxGeometry x="112" y="199" width="54" height="31.5" as="geometry" />
        </mxCell>
        <mxCell id="kdDCr_MIz2S15lqG9rGP-35" value="Enter Password" style="ellipse;whiteSpace=wrap;html=1;" vertex="1" parent="1">
          <mxGeometry x="100" y="250" width="66" height="33.25" as="geometry" />
        </mxCell>
        <mxCell id="kdDCr_MIz2S15lqG9rGP-36" value="" style="shape=line;html=1;strokeWidth=6;rotation=-90;" vertex="1" parent="1">
          <mxGeometry x="47" y="238" width="66" height="10" as="geometry" />
        </mxCell>
        <mxCell id="kdDCr_MIz2S15lqG9rGP-37" value="" style="endArrow=classic;html=1;" edge="1" parent="1">
          <mxGeometry x="35" y="10" width="50" height="50" as="geometry">
            <mxPoint x="112" y="214.25" as="sourcePoint" />
            <mxPoint x="80" y="214" as="targetPoint" />
          </mxGeometry>
        </mxCell>
        <mxCell id="kdDCr_MIz2S15lqG9rGP-38" value="" style="endArrow=classic;html=1;" edge="1" parent="1">
          <mxGeometry x="35" y="10" width="50" height="50" as="geometry">
            <mxPoint x="102" y="266.13" as="sourcePoint" />
            <mxPoint x="82" y="266.13" as="targetPoint" />
          </mxGeometry>
        </mxCell>
        <mxCell id="kdDCr_MIz2S15lqG9rGP-39" value="" style="endArrow=open;endFill=1;endSize=12;html=1;exitX=0.548;exitY=0.3;exitDx=0;exitDy=0;exitPerimeter=0;" edge="1" parent="1" source="kdDCr_MIz2S15lqG9rGP-36">
          <mxGeometry x="35" y="10" width="160" as="geometry">
            <mxPoint x="330" y="170" as="sourcePoint" />
            <mxPoint x="720" y="290" as="targetPoint" />
            <Array as="points">
              <mxPoint x="40" y="240" />
              <mxPoint x="40" y="290" />
            </Array>
          </mxGeometry>
        </mxCell>
        <mxCell id="kdDCr_MIz2S15lqG9rGP-40" value="&lt;font color=&quot;#ff5b14&quot; style=&quot;font-size: 18px&quot;&gt;&lt;b&gt;SYSTEM&lt;/b&gt;&lt;/font&gt;" style="text;html=1;align=center;verticalAlign=middle;resizable=0;points=[];autosize=1;strokeColor=none;" vertex="1" parent="1">
          <mxGeometry x="703" y="11" width="90" height="20" as="geometry" />
        </mxCell>
        <mxCell id="kdDCr_MIz2S15lqG9rGP-41" value="Is Valid" style="rhombus;whiteSpace=wrap;html=1;strokeColor=#000000;" vertex="1" parent="1">
          <mxGeometry x="720" y="266" width="50" height="50" as="geometry" />
        </mxCell>
        <mxCell id="kdDCr_MIz2S15lqG9rGP-42" value="" style="endArrow=classic;html=1;" edge="1" parent="1">
          <mxGeometry x="35" y="10" width="50" height="50" as="geometry">
            <mxPoint x="746" y="319" as="sourcePoint" />
            <mxPoint x="600" y="329" as="targetPoint" />
            <Array as="points">
              <mxPoint x="746" y="329" />
            </Array>
          </mxGeometry>
        </mxCell>
        <mxCell id="kdDCr_MIz2S15lqG9rGP-43" value="NO" style="text;html=1;align=center;verticalAlign=middle;resizable=0;points=[];autosize=1;strokeColor=none;" vertex="1" parent="1">
          <mxGeometry x="702" y="310" width="30" height="20" as="geometry" />
        </mxCell>
        <mxCell id="kdDCr_MIz2S15lqG9rGP-45" value="" style="endArrow=classic;html=1;startArrow=none;" edge="1" parent="1" source="kdDCr_MIz2S15lqG9rGP-44">
          <mxGeometry x="35" y="10" width="50" height="50" as="geometry">
            <mxPoint x="590" y="330" as="sourcePoint" />
            <mxPoint x="410" y="330" as="targetPoint" />
          </mxGeometry>
        </mxCell>
        <mxCell id="kdDCr_MIz2S15lqG9rGP-46" value="Input Info Again" style="ellipse;whiteSpace=wrap;html=1;" vertex="1" parent="1">
          <mxGeometry x="345" y="310" width="70" height="40" as="geometry" />
        </mxCell>
        <mxCell id="kdDCr_MIz2S15lqG9rGP-47" value="" style="endArrow=classic;html=1;exitX=0;exitY=0.5;exitDx=0;exitDy=0;entryX=0.5;entryY=1;entryDx=0;entryDy=0;" edge="1" parent="1" source="kdDCr_MIz2S15lqG9rGP-46" target="kdDCr_MIz2S15lqG9rGP-29">
          <mxGeometry x="35" y="10" width="50" height="50" as="geometry">
            <mxPoint x="390" y="190" as="sourcePoint" />
            <mxPoint x="440" y="140" as="targetPoint" />
            <Array as="points">
              <mxPoint x="234" y="330" />
            </Array>
          </mxGeometry>
        </mxCell>
        <mxCell id="kdDCr_MIz2S15lqG9rGP-48" value="" style="endArrow=classic;html=1;exitX=1;exitY=0.5;exitDx=0;exitDy=0;" edge="1" parent="1" source="kdDCr_MIz2S15lqG9rGP-41">
          <mxGeometry x="35" y="10" width="50" height="50" as="geometry">
            <mxPoint x="390" y="290" as="sourcePoint" />
            <mxPoint x="520" y="360" as="targetPoint" />
            <Array as="points">
              <mxPoint x="800" y="291" />
              <mxPoint x="800" y="360" />
            </Array>
          </mxGeometry>
        </mxCell>
        <mxCell id="kdDCr_MIz2S15lqG9rGP-49" value="YES" style="text;html=1;align=center;verticalAlign=middle;resizable=0;points=[];autosize=1;strokeColor=none;" vertex="1" parent="1">
          <mxGeometry x="760" y="275" width="40" height="20" as="geometry" />
        </mxCell>
        <mxCell id="kdDCr_MIz2S15lqG9rGP-50" value="Go to Dashboard" style="ellipse;whiteSpace=wrap;html=1;" vertex="1" parent="1">
          <mxGeometry x="450" y="340" width="70" height="40" as="geometry" />
        </mxCell>
        <mxCell id="kdDCr_MIz2S15lqG9rGP-51" value="&lt;font style=&quot;font-size: 18px&quot; color=&quot;#99004d&quot;&gt;&lt;b&gt;DRIVER&lt;/b&gt;&lt;/font&gt;" style="text;html=1;align=center;verticalAlign=middle;resizable=0;points=[];autosize=1;strokeColor=none;" vertex="1" parent="1">
          <mxGeometry x="190" y="5" width="80" height="20" as="geometry" />
        </mxCell>
        <mxCell id="kdDCr_MIz2S15lqG9rGP-52" value="" style="endArrow=classic;html=1;exitX=0;exitY=0.5;exitDx=0;exitDy=0;" edge="1" parent="1" source="kdDCr_MIz2S15lqG9rGP-50">
          <mxGeometry width="50" height="50" relative="1" as="geometry">
            <mxPoint x="390" y="520" as="sourcePoint" />
            <mxPoint x="400" y="390" as="targetPoint" />
            <Array as="points">
              <mxPoint x="400" y="360" />
            </Array>
          </mxGeometry>
        </mxCell>
        <mxCell id="kdDCr_MIz2S15lqG9rGP-53" value="" style="shape=line;html=1;strokeWidth=6;rotation=0;" vertex="1" parent="1">
          <mxGeometry x="80" y="400" width="500" height="10" as="geometry" />
        </mxCell>
        <mxCell id="kdDCr_MIz2S15lqG9rGP-55" value="" style="endArrow=classic;html=1;" edge="1" parent="1">
          <mxGeometry x="35" y="307" width="50" height="50" as="geometry">
            <mxPoint x="93" y="408" as="sourcePoint" />
            <mxPoint x="93" y="425" as="targetPoint" />
          </mxGeometry>
        </mxCell>
        <mxCell id="kdDCr_MIz2S15lqG9rGP-56" value="" style="endArrow=classic;html=1;" edge="1" parent="1">
          <mxGeometry x="283.75" y="309" width="50" height="50" as="geometry">
            <mxPoint x="341.75" y="410" as="sourcePoint" />
            <mxPoint x="341.75" y="427" as="targetPoint" />
          </mxGeometry>
        </mxCell>
        <mxCell id="kdDCr_MIz2S15lqG9rGP-57" value="" style="endArrow=classic;html=1;" edge="1" parent="1">
          <mxGeometry x="380.75" y="309" width="50" height="50" as="geometry">
            <mxPoint x="438.75" y="410" as="sourcePoint" />
            <mxPoint x="438.75" y="427" as="targetPoint" />
          </mxGeometry>
        </mxCell>
        <mxCell id="kdDCr_MIz2S15lqG9rGP-58" value="" style="endArrow=classic;html=1;" edge="1" parent="1">
          <mxGeometry x="495.25" y="304" width="50" height="50" as="geometry">
            <mxPoint x="553.25" y="405" as="sourcePoint" />
            <mxPoint x="553.25" y="422" as="targetPoint" />
          </mxGeometry>
        </mxCell>
        <mxCell id="kdDCr_MIz2S15lqG9rGP-59" value="See Regular Trip Info" style="ellipse;whiteSpace=wrap;html=1;" vertex="1" parent="1">
          <mxGeometry x="57.5" y="427" width="72.5" height="40" as="geometry" />
        </mxCell>
        <mxCell id="kdDCr_MIz2S15lqG9rGP-60" value="See Regular Trip Info" style="ellipse;whiteSpace=wrap;html=1;" vertex="1" parent="1">
          <mxGeometry x="306" y="430" width="72.5" height="40" as="geometry" />
        </mxCell>
        <mxCell id="kdDCr_MIz2S15lqG9rGP-61" value="Get Notification if Any Urgent Trip" style="ellipse;whiteSpace=wrap;html=1;" vertex="1" parent="1">
          <mxGeometry x="390" y="427" width="96.5" height="50" as="geometry" />
        </mxCell>
        <mxCell id="kdDCr_MIz2S15lqG9rGP-62" value="View Account" style="ellipse;whiteSpace=wrap;html=1;" vertex="1" parent="1">
          <mxGeometry x="517.5" y="427" width="72.5" height="40" as="geometry" />
        </mxCell>
        <mxCell id="kdDCr_MIz2S15lqG9rGP-63" value="" style="endArrow=classic;html=1;" edge="1" parent="1">
          <mxGeometry x="35.25" y="366" width="50" height="50" as="geometry">
            <mxPoint x="93.25" y="467" as="sourcePoint" />
            <mxPoint x="93.25" y="484" as="targetPoint" />
          </mxGeometry>
        </mxCell>
        <mxCell id="kdDCr_MIz2S15lqG9rGP-64" value="Click On Regular Trip Info" style="ellipse;whiteSpace=wrap;html=1;" vertex="1" parent="1">
          <mxGeometry x="43" y="483" width="102.5" height="47" as="geometry" />
        </mxCell>
        <mxCell id="kdDCr_MIz2S15lqG9rGP-65" value="" style="shape=line;html=1;strokeWidth=6;rotation=0;" vertex="1" parent="1">
          <mxGeometry x="30" y="546" width="240" height="10" as="geometry" />
        </mxCell>
        <mxCell id="kdDCr_MIz2S15lqG9rGP-66" value="" style="endArrow=classic;html=1;" edge="1" parent="1">
          <mxGeometry x="35.25" y="429" width="50" height="50" as="geometry">
            <mxPoint x="93.25" y="530" as="sourcePoint" />
            <mxPoint x="93.25" y="547" as="targetPoint" />
          </mxGeometry>
        </mxCell>
        <mxCell id="kdDCr_MIz2S15lqG9rGP-67" value="" style="endArrow=classic;html=1;" edge="1" parent="1">
          <mxGeometry x="-18" y="450" width="50" height="50" as="geometry">
            <mxPoint x="40" y="551" as="sourcePoint" />
            <mxPoint x="40" y="568" as="targetPoint" />
          </mxGeometry>
        </mxCell>
        <mxCell id="kdDCr_MIz2S15lqG9rGP-68" value="" style="endArrow=classic;html=1;" edge="1" parent="1">
          <mxGeometry x="35.25" y="452" width="50" height="50" as="geometry">
            <mxPoint x="93.25" y="553" as="sourcePoint" />
            <mxPoint x="93.25" y="570" as="targetPoint" />
          </mxGeometry>
        </mxCell>
        <mxCell id="kdDCr_MIz2S15lqG9rGP-69" value="" style="endArrow=classic;html=1;" edge="1" parent="1">
          <mxGeometry x="80.5" y="452" width="50" height="50" as="geometry">
            <mxPoint x="138.5" y="553" as="sourcePoint" />
            <mxPoint x="138.5" y="570" as="targetPoint" />
          </mxGeometry>
        </mxCell>
        <mxCell id="kdDCr_MIz2S15lqG9rGP-70" value="" style="endArrow=classic;html=1;" edge="1" parent="1">
          <mxGeometry x="141.5" y="452" width="50" height="50" as="geometry">
            <mxPoint x="199.5" y="553" as="sourcePoint" />
            <mxPoint x="199.5" y="570" as="targetPoint" />
          </mxGeometry>
        </mxCell>
        <mxCell id="kdDCr_MIz2S15lqG9rGP-71" value="" style="endArrow=classic;html=1;" edge="1" parent="1">
          <mxGeometry x="203" y="452" width="50" height="50" as="geometry">
            <mxPoint x="261" y="553" as="sourcePoint" />
            <mxPoint x="261" y="570" as="targetPoint" />
          </mxGeometry>
        </mxCell>
        <mxCell id="kdDCr_MIz2S15lqG9rGP-72" value="Date" style="ellipse;whiteSpace=wrap;html=1;" vertex="1" parent="1">
          <mxGeometry x="18" y="570" width="42" height="20" as="geometry" />
        </mxCell>
        <mxCell id="kdDCr_MIz2S15lqG9rGP-73" value="Time" style="ellipse;whiteSpace=wrap;html=1;" vertex="1" parent="1">
          <mxGeometry x="65" y="570" width="42" height="20" as="geometry" />
        </mxCell>
        <mxCell id="kdDCr_MIz2S15lqG9rGP-74" value="Location" style="ellipse;whiteSpace=wrap;html=1;" vertex="1" parent="1">
          <mxGeometry x="110" y="570" width="60" height="20" as="geometry" />
        </mxCell>
        <mxCell id="kdDCr_MIz2S15lqG9rGP-75" value="Transport No" style="ellipse;whiteSpace=wrap;html=1;" vertex="1" parent="1">
          <mxGeometry x="170" y="570" width="60" height="40" as="geometry" />
        </mxCell>
        <mxCell id="kdDCr_MIz2S15lqG9rGP-76" value="Driver Name" style="ellipse;whiteSpace=wrap;html=1;" vertex="1" parent="1">
          <mxGeometry x="237.5" y="570" width="50" height="30" as="geometry" />
        </mxCell>
        <mxCell id="kdDCr_MIz2S15lqG9rGP-77" value="" style="shape=line;html=1;strokeWidth=6;rotation=0;" vertex="1" parent="1">
          <mxGeometry x="29.5" y="620" width="252" height="10" as="geometry" />
        </mxCell>
        <mxCell id="kdDCr_MIz2S15lqG9rGP-78" value="" style="endArrow=classic;html=1;" edge="1" parent="1">
          <mxGeometry x="202" y="499" width="50" height="50" as="geometry">
            <mxPoint x="260" y="600" as="sourcePoint" />
            <mxPoint x="260" y="620" as="targetPoint" />
          </mxGeometry>
        </mxCell>
        <mxCell id="kdDCr_MIz2S15lqG9rGP-79" value="" style="endArrow=classic;html=1;" edge="1" parent="1">
          <mxGeometry x="141.5" y="502" width="50" height="50" as="geometry">
            <mxPoint x="200" y="610" as="sourcePoint" />
            <mxPoint x="199.5" y="620" as="targetPoint" />
          </mxGeometry>
        </mxCell>
        <mxCell id="kdDCr_MIz2S15lqG9rGP-80" value="" style="endArrow=classic;html=1;entryX=0.431;entryY=0.38;entryDx=0;entryDy=0;entryPerimeter=0;" edge="1" parent="1" target="kdDCr_MIz2S15lqG9rGP-77">
          <mxGeometry x="80.5" y="489" width="50" height="50" as="geometry">
            <mxPoint x="138.5" y="590" as="sourcePoint" />
            <mxPoint x="138.5" y="607" as="targetPoint" />
          </mxGeometry>
        </mxCell>
        <mxCell id="kdDCr_MIz2S15lqG9rGP-81" value="" style="endArrow=classic;html=1;" edge="1" parent="1">
          <mxGeometry x="27.5" y="489" width="50" height="50" as="geometry">
            <mxPoint x="85.5" y="590" as="sourcePoint" />
            <mxPoint x="84" y="622" as="targetPoint" />
          </mxGeometry>
        </mxCell>
        <mxCell id="kdDCr_MIz2S15lqG9rGP-82" value="" style="endArrow=classic;html=1;entryX=0.04;entryY=0.22;entryDx=0;entryDy=0;entryPerimeter=0;" edge="1" parent="1" target="kdDCr_MIz2S15lqG9rGP-77">
          <mxGeometry x="-18" y="489" width="50" height="50" as="geometry">
            <mxPoint x="40" y="590" as="sourcePoint" />
            <mxPoint x="40" y="607" as="targetPoint" />
          </mxGeometry>
        </mxCell>
        <mxCell id="kdDCr_MIz2S15lqG9rGP-83" value="" style="endArrow=classic;html=1;exitX=0.431;exitY=0.62;exitDx=0;exitDy=0;exitPerimeter=0;" edge="1" parent="1" source="kdDCr_MIz2S15lqG9rGP-77">
          <mxGeometry width="50" height="50" relative="1" as="geometry">
            <mxPoint x="390" y="600" as="sourcePoint" />
            <mxPoint x="138" y="680" as="targetPoint" />
          </mxGeometry>
        </mxCell>
        <mxCell id="kdDCr_MIz2S15lqG9rGP-84" value="" style="shape=line;html=1;strokeWidth=6;rotation=0;" vertex="1" parent="1">
          <mxGeometry x="320" y="490" width="54" height="10" as="geometry" />
        </mxCell>
        <mxCell id="kdDCr_MIz2S15lqG9rGP-85" value="" style="endArrow=classic;html=1;" edge="1" parent="1">
          <mxGeometry x="285.5" y="372" width="50" height="50" as="geometry">
            <mxPoint x="343.5" y="473" as="sourcePoint" />
            <mxPoint x="343.5" y="490" as="targetPoint" />
          </mxGeometry>
        </mxCell>
        <mxCell id="kdDCr_MIz2S15lqG9rGP-86" value="" style="endArrow=classic;html=1;" edge="1" parent="1">
          <mxGeometry x="262" y="396" width="50" height="50" as="geometry">
            <mxPoint x="320" y="497" as="sourcePoint" />
            <mxPoint x="320" y="514" as="targetPoint" />
          </mxGeometry>
        </mxCell>
        <mxCell id="kdDCr_MIz2S15lqG9rGP-87" value="" style="endArrow=classic;html=1;" edge="1" parent="1">
          <mxGeometry x="314.5" y="396" width="50" height="50" as="geometry">
            <mxPoint x="372.5" y="497" as="sourcePoint" />
            <mxPoint x="372.5" y="514" as="targetPoint" />
          </mxGeometry>
        </mxCell>
        <mxCell id="kdDCr_MIz2S15lqG9rGP-88" value="Type" style="ellipse;whiteSpace=wrap;html=1;" vertex="1" parent="1">
          <mxGeometry x="287.5" y="516" width="50" height="30" as="geometry" />
        </mxCell>
        <mxCell id="kdDCr_MIz2S15lqG9rGP-89" value="Number" style="ellipse;whiteSpace=wrap;html=1;" vertex="1" parent="1">
          <mxGeometry x="345" y="516" width="50" height="30" as="geometry" />
        </mxCell>
        <mxCell id="kdDCr_MIz2S15lqG9rGP-90" value="" style="shape=line;html=1;strokeWidth=6;rotation=0;" vertex="1" parent="1">
          <mxGeometry x="315.25" y="560" width="54" height="10" as="geometry" />
        </mxCell>
        <mxCell id="kdDCr_MIz2S15lqG9rGP-91" value="" style="endArrow=classic;html=1;" edge="1" parent="1">
          <mxGeometry x="302" y="445" width="50" height="50" as="geometry">
            <mxPoint x="360" y="546" as="sourcePoint" />
            <mxPoint x="360" y="563" as="targetPoint" />
          </mxGeometry>
        </mxCell>
        <mxCell id="kdDCr_MIz2S15lqG9rGP-92" value="" style="endArrow=classic;html=1;" edge="1" parent="1">
          <mxGeometry x="262" y="445" width="50" height="50" as="geometry">
            <mxPoint x="320" y="546" as="sourcePoint" />
            <mxPoint x="320" y="563" as="targetPoint" />
          </mxGeometry>
        </mxCell>
        <mxCell id="kdDCr_MIz2S15lqG9rGP-93" value="" style="endArrow=classic;html=1;exitX=0.451;exitY=0.86;exitDx=0;exitDy=0;exitPerimeter=0;" edge="1" parent="1" source="kdDCr_MIz2S15lqG9rGP-90">
          <mxGeometry width="50" height="50" relative="1" as="geometry">
            <mxPoint x="390" y="590" as="sourcePoint" />
            <mxPoint x="342" y="680" as="targetPoint" />
          </mxGeometry>
        </mxCell>
        <mxCell id="kdDCr_MIz2S15lqG9rGP-94" value="" style="endArrow=classic;html=1;" edge="1" parent="1">
          <mxGeometry x="387.75" y="375" width="50" height="50" as="geometry">
            <mxPoint x="445.75" y="476" as="sourcePoint" />
            <mxPoint x="445.75" y="493" as="targetPoint" />
          </mxGeometry>
        </mxCell>
        <mxCell id="kdDCr_MIz2S15lqG9rGP-95" value="" style="shape=line;html=1;strokeWidth=6;rotation=0;" vertex="1" parent="1">
          <mxGeometry x="423.25" y="490" width="54" height="10" as="geometry" />
        </mxCell>
        <mxCell id="kdDCr_MIz2S15lqG9rGP-96" value="" style="endArrow=classic;html=1;" edge="1" parent="1">
          <mxGeometry x="366.25" y="396" width="50" height="50" as="geometry">
            <mxPoint x="424.25" y="497" as="sourcePoint" />
            <mxPoint x="424.25" y="514" as="targetPoint" />
          </mxGeometry>
        </mxCell>
        <mxCell id="kdDCr_MIz2S15lqG9rGP-97" value="" style="endArrow=classic;html=1;" edge="1" parent="1">
          <mxGeometry x="417.25" y="396" width="50" height="50" as="geometry">
            <mxPoint x="475.25" y="497" as="sourcePoint" />
            <mxPoint x="475.25" y="514" as="targetPoint" />
          </mxGeometry>
        </mxCell>
        <mxCell id="kdDCr_MIz2S15lqG9rGP-98" value="Time" style="ellipse;whiteSpace=wrap;html=1;" vertex="1" parent="1">
          <mxGeometry x="395" y="516" width="50" height="30" as="geometry" />
        </mxCell>
        <mxCell id="kdDCr_MIz2S15lqG9rGP-99" value="Location" style="ellipse;whiteSpace=wrap;html=1;" vertex="1" parent="1">
          <mxGeometry x="450" y="516" width="50" height="30" as="geometry" />
        </mxCell>
        <mxCell id="kdDCr_MIz2S15lqG9rGP-101" value="" style="endArrow=classic;html=1;" edge="1" parent="1">
          <mxGeometry x="361.5" y="445" width="50" height="50" as="geometry">
            <mxPoint x="419.5" y="546" as="sourcePoint" />
            <mxPoint x="419.5" y="563" as="targetPoint" />
          </mxGeometry>
        </mxCell>
        <mxCell id="kdDCr_MIz2S15lqG9rGP-102" value="" style="endArrow=classic;html=1;" edge="1" parent="1">
          <mxGeometry x="416.5" y="445" width="50" height="50" as="geometry">
            <mxPoint x="474.5" y="546" as="sourcePoint" />
            <mxPoint x="474.5" y="563" as="targetPoint" />
          </mxGeometry>
        </mxCell>
        <mxCell id="kdDCr_MIz2S15lqG9rGP-103" value="" style="shape=line;html=1;strokeWidth=6;rotation=0;" vertex="1" parent="1">
          <mxGeometry x="410" y="560" width="67.25" height="10" as="geometry" />
        </mxCell>
        <mxCell id="kdDCr_MIz2S15lqG9rGP-104" value="" style="endArrow=classic;html=1;exitX=0.451;exitY=0.86;exitDx=0;exitDy=0;exitPerimeter=0;entryX=0.736;entryY=0.324;entryDx=0;entryDy=0;entryPerimeter=0;" edge="1" parent="1" target="kdDCr_MIz2S15lqG9rGP-111">
          <mxGeometry width="50" height="50" relative="1" as="geometry">
            <mxPoint x="443.05400000000003" y="563.9999999999999" as="sourcePoint" />
            <mxPoint x="445.45" y="1076.200048828125" as="targetPoint" />
          </mxGeometry>
        </mxCell>
        <mxCell id="kdDCr_MIz2S15lqG9rGP-106" value="" style="endArrow=classic;html=1;" edge="1" parent="1">
          <mxGeometry x="495.25" y="366" width="50" height="50" as="geometry">
            <mxPoint x="553.25" y="467" as="sourcePoint" />
            <mxPoint x="553.25" y="484" as="targetPoint" />
          </mxGeometry>
        </mxCell>
        <mxCell id="kdDCr_MIz2S15lqG9rGP-107" value="Update Account" style="ellipse;whiteSpace=wrap;html=1;" vertex="1" parent="1">
          <mxGeometry x="517.5" y="483" width="72.5" height="40" as="geometry" />
        </mxCell>
        <mxCell id="kdDCr_MIz2S15lqG9rGP-108" value="" style="endArrow=classic;html=1;exitX=0.5;exitY=1;exitDx=0;exitDy=0;entryX=0.939;entryY=0.324;entryDx=0;entryDy=0;entryPerimeter=0;" edge="1" parent="1" source="kdDCr_MIz2S15lqG9rGP-107" target="kdDCr_MIz2S15lqG9rGP-111">
          <mxGeometry width="50" height="50" relative="1" as="geometry">
            <mxPoint x="390" y="530" as="sourcePoint" />
            <mxPoint x="554" y="1081.60009765625" as="targetPoint" />
          </mxGeometry>
        </mxCell>
        <mxCell id="kdDCr_MIz2S15lqG9rGP-44" value="See Login Failed Massage" style="ellipse;whiteSpace=wrap;html=1;" vertex="1" parent="1">
          <mxGeometry x="509.75" y="303" width="88" height="54" as="geometry" />
        </mxCell>
        <mxCell id="kdDCr_MIz2S15lqG9rGP-109" value="" style="endArrow=none;html=1;" edge="1" parent="1" target="kdDCr_MIz2S15lqG9rGP-44">
          <mxGeometry x="35" y="10" width="50" height="50" as="geometry">
            <mxPoint x="590" y="330" as="sourcePoint" />
            <mxPoint x="410" y="330" as="targetPoint" />
          </mxGeometry>
        </mxCell>
        <mxCell id="kdDCr_MIz2S15lqG9rGP-111" value="" style="shape=line;html=1;strokeWidth=6;rotation=0;" vertex="1" parent="1">
          <mxGeometry x="30" y="680" width="560" height="10" as="geometry" />
        </mxCell>
        <mxCell id="kdDCr_MIz2S15lqG9rGP-112" value="" style="endArrow=classic;html=1;" edge="1" parent="1">
          <mxGeometry width="50" height="50" relative="1" as="geometry">
            <mxPoint x="310" y="688" as="sourcePoint" />
            <mxPoint x="310" y="708" as="targetPoint" />
          </mxGeometry>
        </mxCell>
        <mxCell id="kdDCr_MIz2S15lqG9rGP-113" value="Logout" style="ellipse;whiteSpace=wrap;html=1;" vertex="1" parent="1">
          <mxGeometry x="281.5" y="710" width="60" height="30" as="geometry" />
        </mxCell>
        <mxCell id="kdDCr_MIz2S15lqG9rGP-114" value="" style="endArrow=classic;html=1;" edge="1" parent="1">
          <mxGeometry width="50" height="50" relative="1" as="geometry">
            <mxPoint x="309.41" y="739.9999999999998" as="sourcePoint" />
            <mxPoint x="309.41" y="759.9999999999998" as="targetPoint" />
          </mxGeometry>
        </mxCell>
        <mxCell id="kdDCr_MIz2S15lqG9rGP-115" value="" style="ellipse;html=1;shape=endState;fillColor=#000000;strokeColor=#ff0000;" vertex="1" parent="1">
          <mxGeometry x="295" y="760" width="30" height="30" as="geometry" />
        </mxCell>
        <mxCell id="kdDCr_MIz2S15lqG9rGP-116" value="" style="endArrow=none;html=1;" edge="1" parent="1">
          <mxGeometry width="50" height="50" relative="1" as="geometry">
            <mxPoint x="680" y="790" as="sourcePoint" />
            <mxPoint x="680" y="10" as="targetPoint" />
          </mxGeometry>
        </mxCell>
      </root>
    </mxGraphModel>
  </diagram>
</mxfile>
